<svg width="34" height="34" viewBox="0 0 34 34" fill="none" xmlns="http://www.w3.org/2000/svg">
<path d="M17 22.6667C20.1252 22.6667 22.6667 20.1252 22.6667 17C22.6667 13.8748 20.1252 11.3333 17 11.3333C13.8748 11.3333 11.3333 13.8748 11.3333 17C11.3333 20.1252 13.8748 22.6667 17 22.6667ZM17 14.1667C18.5357 14.1667 19.8333 15.4643 19.8333 17C19.8333 18.5357 18.5357 19.8333 17 19.8333C15.4643 19.8333 14.1667 18.5357 14.1667 17C14.1667 15.4643 15.4643 14.1667 17 14.1667Z" fill="#7E7E7E"/>
<path d="M4.03041 22.8593L5.44708 25.3102C6.19933 26.6092 8.00983 27.0966 9.31458 26.3443L10.064 25.9108C10.8836 26.5555 11.7872 27.0855 12.75 27.4862V28.3333C12.75 29.8959 14.0207 31.1667 15.5833 31.1667H18.4167C19.9792 31.1667 21.25 29.8959 21.25 28.3333V27.4862C22.2124 27.0855 23.116 26.556 23.936 25.9122L24.6854 26.3457C25.993 27.0966 27.7992 26.6121 28.5543 25.3102L29.9696 22.8607C30.345 22.2101 30.4468 21.437 30.2527 20.7113C30.0585 19.9856 29.5842 19.3667 28.934 18.9904L28.2186 18.5767C28.3707 17.532 28.3707 16.4708 28.2186 15.4261L28.934 15.0124C29.5839 14.6359 30.058 14.017 30.2521 13.2914C30.4462 12.5658 30.3446 11.7928 29.9696 11.1421L28.5543 8.69266C27.8021 7.38933 25.993 6.90058 24.6854 7.65566L23.936 8.08916C23.1164 7.44445 22.2127 6.91446 21.25 6.51383V5.66666C21.25 4.10408 19.9792 2.83333 18.4167 2.83333H15.5833C14.0207 2.83333 12.75 4.10408 12.75 5.66666V6.51383C11.7876 6.91452 10.884 7.44399 10.064 8.08775L9.31458 7.65424C8.00558 6.90199 6.19791 7.38933 5.44566 8.69125L4.03041 11.1407C3.65497 11.7913 3.55315 12.5644 3.74732 13.2901C3.9415 14.0158 4.41578 14.6348 5.06599 15.011L5.78141 15.4247C5.62874 16.4689 5.62874 17.5297 5.78141 18.5739L5.06599 18.9876C4.41597 19.3644 3.94191 19.9836 3.74778 20.7094C3.55364 21.4352 3.65528 22.2084 4.03041 22.8593ZM8.74224 18.9522C8.58228 18.3137 8.50093 17.6582 8.49999 17C8.49999 16.3455 8.58216 15.6882 8.74083 15.0478C8.81554 14.7494 8.79097 14.4347 8.67082 14.1515C8.55068 13.8682 8.34151 13.6319 8.07499 13.4782L6.48408 12.5573L7.89791 10.1079L9.51999 11.0457C9.78452 11.1988 10.0916 11.262 10.395 11.2257C10.6985 11.1894 10.982 11.0557 11.203 10.8446C12.1614 9.93303 13.3171 9.25481 14.5803 8.86266C14.8705 8.77407 15.1246 8.59467 15.3051 8.35086C15.4857 8.10705 15.5832 7.81172 15.5833 7.50833V5.66666H18.4167V7.50833C18.4168 7.81172 18.5143 8.10705 18.6949 8.35086C18.8754 8.59467 19.1295 8.77407 19.4197 8.86266C20.6826 9.25538 21.8382 9.93352 22.797 10.8446C23.0182 11.0553 23.3017 11.1887 23.605 11.225C23.9084 11.2612 24.2153 11.1984 24.48 11.0457L26.1007 10.1093L27.5173 12.5587L25.925 13.4782C25.6586 13.632 25.4496 13.8684 25.3295 14.1516C25.2094 14.4348 25.1847 14.7494 25.2592 15.0478C25.4178 15.6882 25.5 16.3455 25.5 17C25.5 17.6531 25.4178 18.3104 25.2577 18.9522C25.1834 19.2508 25.2083 19.5655 25.3287 19.8487C25.4491 20.1319 25.6584 20.3682 25.925 20.5218L27.5159 21.4412L26.1021 23.8907L24.48 22.9542C24.2155 22.8009 23.9084 22.7377 23.6049 22.774C23.3014 22.8102 23.0179 22.9441 22.797 23.1554C21.8386 24.067 20.6829 24.7452 19.4197 25.1373C19.1295 25.2259 18.8754 25.4053 18.6949 25.6491C18.5143 25.8929 18.4168 26.1883 18.4167 26.4917L18.4195 28.3333H15.5833V26.4917C15.5832 26.1883 15.4857 25.8929 15.3051 25.6491C15.1246 25.4053 14.8705 25.2259 14.5803 25.1373C13.3174 24.7446 12.1618 24.0665 11.203 23.1554C10.9824 22.9435 10.6987 22.8093 10.395 22.7733C10.0913 22.7372 9.78404 22.8013 9.51999 22.9557L7.89933 23.8935L6.48266 21.4441L8.07499 20.5218C8.3416 20.3682 8.55092 20.1319 8.67131 19.8487C8.79169 19.5655 8.81659 19.2508 8.74224 18.9522Z" fill="#7E7E7E"/>
</svg>
