<svg width="49" height="55" viewBox="0 0 49 55" fill="none" xmlns="http://www.w3.org/2000/svg">
<circle cx="24.5" cy="27.5" r="24.5" fill="url(#paint0_linear_6_325)"/>
<path d="M28.1772 14.7486L33.2647 19.8309C33.4838 20.0498 33.6156 20.3411 33.6353 20.6502C33.655 20.9593 33.5612 21.2649 33.3715 21.5098L33.2659 21.6294L28.1785 26.7244C27.9502 26.9549 27.6423 27.0895 27.318 27.1005C26.9937 27.1115 26.6775 26.9981 26.434 26.7836C26.1906 26.5691 26.0383 26.2696 26.0085 25.9465C25.9786 25.6234 26.0733 25.3011 26.2733 25.0456L26.3788 24.926L29.2914 22.0109H15.8313C15.5198 22.0109 15.2191 21.8965 14.9863 21.6895C14.7535 21.4825 14.6048 21.1972 14.5684 20.8879L14.5594 20.7378C14.5595 20.4263 14.6739 20.1256 14.8809 19.8928C15.0879 19.66 15.3731 19.5113 15.6825 19.4748L15.8313 19.4659H29.3003L26.3801 16.5496C26.1609 16.3307 26.0291 16.0394 26.0095 15.7303C25.9898 15.4212 26.0836 15.1156 26.2733 14.8707L26.3788 14.7499C26.5977 14.5307 26.889 14.3989 27.1981 14.3792C27.5072 14.3596 27.8128 14.4534 28.0577 14.643L28.1772 14.7499L33.2647 19.8309L28.1772 14.7499V14.7486ZM33.6259 33.3076L33.6335 33.4564C33.6335 33.7679 33.5191 34.0686 33.3121 34.3013C33.1051 34.5341 32.8198 34.6829 32.5105 34.7193L32.3616 34.7282H18.9016L21.8179 37.6446C22.0371 37.8634 22.1689 38.1547 22.1886 38.4638C22.2082 38.7729 22.1144 39.0786 21.9248 39.3234L21.8192 39.443C21.6004 39.6622 21.3091 39.7939 21 39.8136C20.6909 39.8333 20.3852 39.7395 20.1404 39.5498L20.0208 39.443L14.9334 34.3606C14.7142 34.1418 14.5824 33.8505 14.5627 33.5414C14.5431 33.2323 14.6369 32.9267 14.8265 32.6818L14.9321 32.5622L20.0195 27.4697C20.2479 27.2392 20.5557 27.1047 20.88 27.0937C21.2043 27.0827 21.5205 27.196 21.764 27.4105C22.0074 27.6251 22.1597 27.9245 22.1896 28.2476C22.2195 28.5707 22.1247 28.893 21.9248 29.1486L21.8192 29.2681L18.9067 32.1845H32.3629C32.6744 32.1845 32.9751 32.2989 33.2079 32.5059C33.4407 32.7129 33.5894 32.9982 33.6259 33.3076L33.6335 33.4564L33.6259 33.3076Z" fill="white"/>
<circle cx="24.0984" cy="51.1967" r="3.21311" fill="#F3F5FF"/>
<circle cx="24.0984" cy="3.80326" r="3.21311" fill="#F3F5FF"/>
<defs>
<linearGradient id="paint0_linear_6_325" x1="0" y1="3" x2="49" y2="52" gradientUnits="userSpaceOnUse">
<stop stop-color="#C144F6"/>
<stop offset="1" stop-color="#5149DA"/>
</linearGradient>
</defs>
</svg>
