<svg width="36" height="36" viewBox="0 0 36 36" fill="none" xmlns="http://www.w3.org/2000/svg">
<path d="M36 18C36 20.3638 35.5344 22.7044 34.6298 24.8883C33.7252 27.0722 32.3994 29.0565 30.7279 30.7279C29.0565 32.3994 27.0722 33.7252 24.8883 34.6298C22.7044 35.5344 20.3638 36 18 36L18 30.6C19.6547 30.6 21.2931 30.2741 22.8218 29.6409C24.3505 29.0077 25.7395 28.0796 26.9095 26.9095C28.0796 25.7395 29.0077 24.3505 29.6409 22.8218C30.2741 21.2931 30.6 19.6547 30.6 18H36Z" fill="black"/>
<path d="M18 36C14.4399 36 10.9598 34.9443 7.99973 32.9665C5.03965 30.9886 2.73255 28.1774 1.37017 24.8883C0.0077907 21.5992 -0.348669 17.98 0.345865 14.4884C1.0404 10.9967 2.75473 7.78942 5.27208 5.27208C7.78942 2.75473 10.9967 1.0404 14.4884 0.345865C17.98 -0.348669 21.5992 0.00779149 24.8883 1.37017C28.1774 2.73255 30.9886 5.03965 32.9665 7.99974C34.9443 10.9598 36 14.4399 36 18L30.6 18C30.6 15.508 29.861 13.0719 28.4765 10.9998C27.092 8.92776 25.1242 7.31278 22.8218 6.35912C20.5195 5.40545 17.986 5.15593 15.5419 5.64211C13.0977 6.12828 10.8526 7.32831 9.09046 9.09045C7.32831 10.8526 6.12828 13.0977 5.64211 15.5419C5.15593 17.986 5.40545 20.5195 6.35912 22.8218C7.31278 25.1242 8.92776 27.092 10.9998 28.4765C13.0719 29.861 15.508 30.6 18 30.6L18 36Z" fill="#D9D9D9"/>
</svg>
